<?xml version="1.0" encoding="UTF-8"?>
<svg width="128" height="128" viewBox="0 0 128 128" fill="none" xmlns="http://www.w3.org/2000/svg">
  <circle cx="64" cy="64" r="64" fill="#FF6B6B"/>
  <path d="M64 32C48.536 32 36 44.536 36 60c0 15.464 12.536 28 28 28s28-12.536 28-28c0-15.464-12.536-28-28-28zm0 8c11.046 0 20 8.954 20 20s-8.954 20-20 20-20-8.954-20-20 8.954-20 20-20z" fill="white"/>
  <circle cx="52" cy="56" r="4" fill="white"/>
  <circle cx="76" cy="56" r="4" fill="white"/>
  <path d="M64 72c-6.627 0-12 5.373-12 12h24c0-6.627-5.373-12-12-12z" fill="white"/>
</svg>
